<svg width="50" height="50" viewBox="0 0 50 50" fill="none" xmlns="http://www.w3.org/2000/svg">
<path d="M43.75 3.125C45.4759 3.125 46.875 4.52411 46.875 6.25V43.75C46.875 45.4759 45.4759 46.875 43.75 46.875H6.25C4.52411 46.875 3.125 45.4759 3.125 43.75V6.25C3.125 4.52411 4.52411 3.125 6.25 3.125H43.75ZM6.25 0C2.79822 0 0 2.79822 0 6.25V43.75C0 47.2018 2.79822 50 6.25 50H43.75C47.2018 50 50 47.2018 50 43.75V6.25C50 2.79822 47.2018 0 43.75 0H6.25Z" fill="#F44336"/>
<path d="M21.8798 34.375C21.8798 32.6491 23.2789 31.25 25.0048 31.25C26.7307 31.25 28.1298 32.6491 28.1298 34.375C28.1298 36.1009 26.7307 37.5 25.0048 37.5C23.2789 37.5 21.8798 36.1009 21.8798 34.375Z" fill="#F44336"/>
<path d="M22.1859 15.6095C22.0195 13.9446 23.3268 12.5 25 12.5C26.6732 12.5 27.9805 13.9446 27.8141 15.6095L26.718 26.5703C26.6297 27.4529 25.887 28.125 25 28.125C24.113 28.125 23.3703 27.4529 23.282 26.5703L22.1859 15.6095Z" fill="#F44336"/>
</svg>
