<svg width="50" height="50" viewBox="0 0 50 50" fill="none" xmlns="http://www.w3.org/2000/svg">
<path d="M43.75 3.125C45.4759 3.125 46.875 4.52411 46.875 6.25V43.75C46.875 45.4759 45.4759 46.875 43.75 46.875H6.25C4.52411 46.875 3.125 45.4759 3.125 43.75V6.25C3.125 4.52411 4.52411 3.125 6.25 3.125H43.75ZM6.25 0C2.79822 0 0 2.79822 0 6.25V43.75C0 47.2018 2.79822 50 6.25 50H43.75C47.2018 50 50 47.2018 50 43.75V6.25C50 2.79822 47.2018 0 43.75 0H6.25Z" fill="#4B46D7"/>
<path d="M27.9084 20.5872L20.749 21.4844L20.4927 22.6746L21.9026 22.9309C22.8181 23.1506 23.0012 23.4802 22.7998 24.3958L20.4927 35.2356C19.8884 38.0371 20.8223 39.3555 23.0195 39.3555C24.7224 39.3555 26.7 38.5681 27.5972 37.4878L27.8718 36.1877C27.2493 36.7371 26.3337 36.9568 25.7295 36.9568C24.8689 36.9568 24.5576 36.3525 24.7773 35.2905L27.9084 20.5872Z" fill="#4B46D7"/>
<path d="M28.125 14.0625C28.125 15.7884 26.7259 17.1875 25 17.1875C23.2741 17.1875 21.875 15.7884 21.875 14.0625C21.875 12.3366 23.2741 10.9375 25 10.9375C26.7259 10.9375 28.125 12.3366 28.125 14.0625Z" fill="#4B46D7"/>
</svg>
